# xmcd
#
# Track frame offsets:
#	150
#	4693
#	22799
#	32079
#	47614
#	60571
#	64436
#	73820
#	90670
#	94014
#	106914
#	121332
#	132626
#	146716
#	163095
#	177967
#	191848
#	206367
#	217870
#	220853
#	224757
#	229523
#	246988
#	261178
#	275431
#
# Disc length: 3901 seconds
#
# Revision: 0
# Processed by: cddbd v1.4PL0 Copyright (c) Steve Scherf et al.
# Submitted via: EasyCDDAExtractor 4.6.9.1
#
DISCID=780f3b19
DTITLE=Various Artist - Blazin' Hip Hop and R&B
DYEAR=2002
DGENRE=R&B
TTITLE0=Intro
TTITLE1=Quality Control - Jurassic S
TTITLE2=Spread Love (rmx) - Mike Zoot
TTITLE3=Ol Time Killing - Kardinal Offishall
TTITLE4=Its Time - Encore
TTITLE5=Def Wish Freestyle
TTITLE6=We Got The Funk - Beatnuts
TTITLE7=Witness - Roots Manuva
TTITLE8=MC Trey Freestyle
TTITLE9=Satisfied - J Live
TTITLE10=The 6th Sense - Common
TTITLE11=Essentials - DJ Js One
TTITLE12=Whats Your name - Tommy Tee
TTITLE13=Third Eye - QI Dynasty
TTITLE14=Step Into A World (Raptures Delight) - KRS One
TTITLE15=Kik Off (Dirty Version) - Blaktwang
TTITLE16=Mic Manipulation - Edan
TTITLE17=Super Bowl Sundae - Ozomatli
TTITLE18=Maya Jupiter Freestyle
TTITLE19=Littlehorse Freestyle
TTITLE20=Turn Tha Party On
TTITLE21=Rock The Spot - Blackalicious
TTITLE22=The Little Salsa Remix - Ugly Duckling
TTITLE23=Weekends - Black Eyed Peas
TTITLE24=Koolism Is... - Koolism
EXTD=
EXTT0=
EXTT1=
EXTT2=
EXTT3=
EXTT4=
EXTT5=
EXTT6=
EXTT7=
EXTT8=
EXTT9=
EXTT10=
EXTT11=
EXTT12=
EXTT13=
EXTT14=
EXTT15=
EXTT16=
EXTT17=
EXTT18=
EXTT19=
EXTT20=
EXTT21=
EXTT22=
EXTT23=
EXTT24=
PLAYORDER=
